STARTFONT 2.1
FONT -Firefly-Firefly New Sung-Medium-R-Normal--11-110-75-75-P-109-ISO10646-1
SIZE 11 75 75
FONTBOUNDINGBOX 11 11 0 -1
STARTPROPERTIES 27
FONT_NAME "Firefly-New-Sung"
FONT_ASCENT 10
FONT_DESCENT 1
UNDERLINE_POSITION -74
UNDERLINE_THICKNESS 50
QUAD_WIDTH 11
X_HEIGHT 5
CAP_HEIGHT 8
DEFAULT_CHAR 0
FONTNAME_REGISTRY ""
FAMILY_NAME "Firefly New Sung"
FOUNDRY "Firefly"
WEIGHT_NAME "Medium"
SETWIDTH_NAME "Normal"
SLANT "R"
ADD_STYLE_NAME ""
PIXEL_SIZE 11
POINT_SIZE 110
RESOLUTION_X 75
RESOLUTION_Y 75
RESOLUTION 75
SPACING "P"
AVERAGE_WIDTH 109
CHARSET_REGISTRY "ISO10646"
CHARSET_ENCODING "-1"
CHARSET_COLLECTIONS "ASCII ISO8859-5 JISX0208.1997 GB2312.1980 BIG5 ISO10646-1"
FULL_NAME "Firefly New Sung"
ENDPROPERTIES
CHARS 17377
STARTCHAR .notdef
ENCODING 0
SWIDTH 500 0
DWIDTH 6 0
BBX 4 9 0 0
BITMAP
F0
90
90
90
90
90
90
90
F0
ENDCHAR
STARTCHAR nounicode-3-1-c
ENCODING 12
SWIDTH 333 0
DWIDTH 6 0
BBX 1 1 0 0
BITMAP
00
ENDCHAR
STARTCHAR nounicode-3-1-d
ENCODING 13
SWIDTH 333 0
DWIDTH 3 0
BBX 1 1 2 -1
BITMAP
00
ENDCHAR
STARTCHAR space
ENCODING 32
SWIDTH 500 0
DWIDTH 6 0
BBX 1 1 0 0
BITMAP
00
ENDCHAR
STARTCHAR exclam
ENCODING 33
SWIDTH 500 0
DWIDTH 6 0
BBX 1 9 2 0
BITMAP
80
80
80
80
80
80
00
00
80
ENDCHAR
STARTCHAR quotedbl
ENCODING 34
SWIDTH 500 0
DWIDTH 6 0
BBX 5 3 0 6
BITMAP
D8
48
90
ENDCHAR
STARTCHAR numbersign
ENCODING 35
SWIDTH 500 0
DWIDTH 6 0
BBX 6 9 0 0
BITMAP
28
28
28
7C
28
FC
50
50
50
ENDCHAR
STARTCHAR dollar
ENCODING 36
SWIDTH 500 0
DWIDTH 6 0
BBX 5 9 0 0
BITMAP
20
70
A8
A0
70
28
A8
70
20
ENDCHAR
STARTCHAR percent
ENCODING 37
SWIDTH 500 0
DWIDTH 6 0
BBX 6 10 0 -1
BITMAP
48
A8
A8
B0
50
28
54
54
94
88
ENDCHAR
STARTCHAR ampersand
ENCODING 38
SWIDTH 500 0
DWIDTH 6 0
BBX 5 9 0 0
BITMAP
20
50
50
50
60
A8
90
90
68
ENDCHAR
STARTCHAR quotesingle
ENCODING 39
SWIDTH 500 0
DWIDTH 6 0
BBX 2 3 2 6
BITMAP
C0
40
80
ENDCHAR
STARTCHAR parenleft
ENCODING 40
SWIDTH 500 0
DWIDTH 6 0
BBX 3 10 1 -1
BITMAP
20
40
40
80
80
80
80
40
40
20
ENDCHAR
STARTCHAR parenright
ENCODING 41
SWIDTH 500 0
DWIDTH 6 0
BBX 3 10 1 -1
BITMAP
80
40
40
20
20
20
20
40
40
80
ENDCHAR
STARTCHAR asterisk
ENCODING 42
SWIDTH 500 0
DWIDTH 6 0
BBX 5 7 0 1
BITMAP
20
A8
70
20
70
A8
20
ENDCHAR
STARTCHAR plus
ENCODING 43
SWIDTH 500 0
DWIDTH 6 0
BBX 5 7 0 1
BITMAP
20
20
20
F8
20
20
20
ENDCHAR
STARTCHAR comma
ENCODING 44
SWIDTH 500 0
DWIDTH 6 0
BBX 2 3 2 0
BITMAP
C0
40
80
ENDCHAR
STARTCHAR hyphen
ENCODING 45
SWIDTH 500 0
DWIDTH 6 0
BBX 5 1 0 4
BITMAP
F8
ENDCHAR
STARTCHAR period
ENCODING 46
SWIDTH 500 0
DWIDTH 6 0
BBX 1 2 2 0
BITMAP
80
80
ENDCHAR
STARTCHAR slash
ENCODING 47
SWIDTH 500 0
DWIDTH 6 0
BBX 5 10 0 -1
BITMAP
08
08
10
10
20
20
40
40
80
80
ENDCHAR
STARTCHAR zero
ENCODING 48
SWIDTH 500 0
DWIDTH 6 0
BBX 5 9 0 0
BITMAP
20
50
88
88
88
88
88
50
20
ENDCHAR
STARTCHAR one
ENCODING 49
SWIDTH 500 0
DWIDTH 6 0
BBX 3 9 1 0
BITMAP
40
C0
40
40
40
40
40
40
E0
ENDCHAR
STARTCHAR two
ENCODING 50
SWIDTH 500 0
DWIDTH 6 0
BBX 5 9 0 0
BITMAP
70
88
88
08
10
20
40
88
F8
ENDCHAR
STARTCHAR three
ENCODING 51
SWIDTH 500 0
DWIDTH 6 0
BBX 5 9 0 0
BITMAP
70
88
08
08
30
08
08
88
70
ENDCHAR
STARTCHAR four
ENCODING 52
SWIDTH 500 0
DWIDTH 6 0
BBX 5 9 0 0
BITMAP
10
30
30
50
50
90
F8
10
38
ENDCHAR
STARTCHAR five
ENCODING 53
SWIDTH 500 0
DWIDTH 6 0
BBX 5 9 0 0
BITMAP
78
40
40
40
70
08
08
88
70
ENDCHAR
STARTCHAR six
ENCODING 54
SWIDTH 500 0
DWIDTH 6 0
BBX 5 9 0 0
BITMAP
70
88
80
80
F0
88
88
88
70
ENDCHAR
STARTCHAR seven
ENCODING 55
SWIDTH 500 0
DWIDTH 6 0
BBX 5 9 0 0
BITMAP
F8
88
08
10
10
20
20
20
20
ENDCHAR
STARTCHAR eight
ENCODING 56
SWIDTH 500 0
DWIDTH 6 0
BBX 5 9 0 0
BITMAP
70
88
88
88
70
88
88
88
70
ENDCHAR
STARTCHAR nine
ENCODING 57
SWIDTH 500 0
DWIDTH 6 0
BBX 5 9 0 0
BITMAP
70
88
88
88
78
08
08
88
70
ENDCHAR
STARTCHAR colon
ENCODING 58
SWIDTH 500 0
DWIDTH 6 0
BBX 1 7 2 1
BITMAP
80
80
00
00
00
80
80
ENDCHAR
STARTCHAR semicolon
ENCODING 59
SWIDTH 500 0
DWIDTH 6 0
BBX 2 7 2 0
BITMAP
C0
C0
00
00
C0
40
80
ENDCHAR
STARTCHAR less
ENCODING 60
SWIDTH 500 0
DWIDTH 6 0
BBX 5 10 0 -1
BITMAP
08
10
20
40
80
80
40
20
10
08
ENDCHAR
STARTCHAR equal
ENCODING 61
SWIDTH 500 0
DWIDTH 6 0
BBX 5 3 0 2
BITMAP
F8
00
F8
ENDCHAR
STARTCHAR greater
ENCODING 62
SWIDTH 500 0
DWIDTH 6 0
BBX 5 10 0 -1
BITMAP
80
40
20
10
08
08
10
20
40
80
ENDCHAR
STARTCHAR question
ENCODING 63
SWIDTH 500 0
DWIDTH 6 0
BBX 5 9 0 0
BITMAP
70
88
88
10
20
20
20
00
20
ENDCHAR
STARTCHAR at
ENCODING 64
SWIDTH 500 0
DWIDTH 6 0
BBX 6 10 0 -1
BITMAP
30
48
B4
D4
D4
D4
D4
A8
80
78
ENDCHAR
STARTCHAR A
ENCODING 65
SWIDTH 500 0
DWIDTH 6 0
BBX 5 9 0 0
BITMAP
20
20
20
50
50
70
88
88
88
ENDCHAR
STARTCHAR B
ENCODING 66
SWIDTH 500 0
DWIDTH 6 0
BBX 5 9 0 0
BITMAP
F0
88
88
88
F0
88
88
88
F0
ENDCHAR
STARTCHAR C
ENCODING 67
SWIDTH 500 0
DWIDTH 6 0
BBX 5 9 0 0
BITMAP
30
48
88
80
80
80
80
48
30
ENDCHAR
STARTCHAR D
ENCODING 68
SWIDTH 500 0
DWIDTH 6 0
BBX 5 9 0 0
BITMAP
E0
90
88
88
88
88
88
90
E0
ENDCHAR
STARTCHAR E
ENCODING 69
SWIDTH 500 0
DWIDTH 6 0
BBX 5 9 0 0
BITMAP
F8
80
80
80
F0
80
80
80
F8
ENDCHAR
STARTCHAR F
ENCODING 70
SWIDTH 500 0
DWIDTH 6 0
BBX 5 9 0 0
BITMAP
F8
80
80
80
F0
80
80
80
80
ENDCHAR
STARTCHAR G
ENCODING 71
SWIDTH 500 0
DWIDTH 6 0
BBX 5 9 0 0
BITMAP
30
48
80
80
80
98
88
48
30
ENDCHAR
STARTCHAR H
ENCODING 72
SWIDTH 500 0
DWIDTH 6 0
BBX 5 9 0 0
BITMAP
88
88
88
88
F8
88
88
88
88
ENDCHAR
STARTCHAR I
ENCODING 73
SWIDTH 500 0
DWIDTH 6 0
BBX 3 9 1 0
BITMAP
E0
40
40
40
40
40
40
40
E0
ENDCHAR
STARTCHAR J
ENCODING 74
SWIDTH 500 0
DWIDTH 6 0
BBX 5 9 0 0
BITMAP
38
10
10
10
10
10
10
90
60
ENDCHAR
STARTCHAR K
ENCODING 75
SWIDTH 500 0
DWIDTH 6 0
BBX 5 9 0 0
BITMAP
88
88
90
A0
E0
90
90
88
88
ENDCHAR
STARTCHAR L
ENCODING 76
SWIDTH 500 0
DWIDTH 6 0
BBX 5 9 0 0
BITMAP
E0
40
40
40
40
40
40
48
F8
ENDCHAR
STARTCHAR M
ENCODING 77
SWIDTH 500 0
DWIDTH 6 0
BBX 5 9 0 0
BITMAP
88
88
D8
D8
A8
A8
A8
88
88
ENDCHAR
STARTCHAR N
ENCODING 78
SWIDTH 500 0
DWIDTH 6 0
BBX 5 9 0 0
BITMAP
88
C8
C8
A8
A8
A8
98
98
88
ENDCHAR
STARTCHAR O
ENCODING 79
SWIDTH 500 0
DWIDTH 6 0
BBX 5 9 0 0
BITMAP
70
88
88
88
88
88
88
88
70
ENDCHAR
STARTCHAR P
ENCODING 80
SWIDTH 500 0
DWIDTH 6 0
BBX 5 9 0 0
BITMAP
F0
48
48
48
70
40
40
40
E0
ENDCHAR
STARTCHAR Q
ENCODING 81
SWIDTH 500 0
DWIDTH 6 0
BBX 5 9 0 0
BITMAP
70
88
88
88
88
E8
98
70
08
ENDCHAR
STARTCHAR R
ENCODING 82
SWIDTH 500 0
DWIDTH 6 0
BBX 5 9 0 0
BITMAP
F0
88
88
88
F0
A0
90
88
88
ENDCHAR
STARTCHAR S
ENCODING 83
SWIDTH 500 0
DWIDTH 6 0
BBX 5 9 0 0
BITMAP
70
88
88
80
70
08
88
88
70
ENDCHAR
STARTCHAR T
ENCODING 84
SWIDTH 500 0
DWIDTH 6 0
BBX 5 9 0 0
BITMAP
F8
A8
20
20
20
20
20
20
70
ENDCHAR
STARTCHAR U
ENCODING 85
SWIDTH 500 0
DWIDTH 6 0
BBX 5 9 0 0
BITMAP
88
88
88
88
88
88
88
88
70
ENDCHAR
STARTCHAR V
ENCODING 86
SWIDTH 500 0
DWIDTH 6 0
BBX 5 9 0 0
BITMAP
88
88
88
50
50
50
20
20
20
ENDCHAR
STARTCHAR W
ENCODING 87
SWIDTH 500 0
DWIDTH 6 0
BBX 5 9 0 0
BITMAP
A8
A8
A8
A8
F8
50
50
50
50
ENDCHAR
STARTCHAR X
ENCODING 88
SWIDTH 500 0
DWIDTH 6 0
BBX 5 9 0 0
BITMAP
88
88
50
50
20
50
50
88
88
ENDCHAR
STARTCHAR Y
ENCODING 89
SWIDTH 500 0
DWIDTH 6 0
BBX 5 9 0 0
BITMAP
88
88
50
50
20
20
20
20
20
ENDCHAR
STARTCHAR Z
ENCODING 90
SWIDTH 500 0
DWIDTH 6 0
BBX 5 9 0 0
BITMAP
F8
88
10
10
20
20
40
88
F8
ENDCHAR
STARTCHAR bracketleft
ENCODING 91
SWIDTH 500 0
DWIDTH 6 0
BBX 3 10 2 -1
BITMAP
E0
80
80
80
80
80
80
80
80
E0
ENDCHAR
STARTCHAR backslash
ENCODING 92
SWIDTH 500 0
DWIDTH 6 0
BBX 5 10 0 -1
BITMAP
80
80
40
40
20
20
10
10
08
08
ENDCHAR
STARTCHAR bracketright
ENCODING 93
SWIDTH 500 0
DWIDTH 6 0
BBX 3 10 1 -1
BITMAP
E0
20
20
20
20
20
20
20
20
E0
ENDCHAR
STARTCHAR asciicircum
ENCODING 94
SWIDTH 500 0
DWIDTH 6 0
BBX 5 3 0 6
BITMAP
20
50
88
ENDCHAR
STARTCHAR underscore
ENCODING 95
SWIDTH 500 0
DWIDTH 6 0
BBX 5 1 0 -1
BITMAP
F8
ENDCHAR
STARTCHAR grave
ENCODING 96
SWIDTH 500 0
DWIDTH 6 0
BBX 3 3 1 6
BITMAP
C0
40
20
ENDCHAR
STARTCHAR a
ENCODING 97
SWIDTH 500 0
DWIDTH 6 0
BBX 5 6 0 0
BITMAP
E0
10
70
90
90
68
ENDCHAR
STARTCHAR b
ENCODING 98
SWIDTH 500 0
DWIDTH 6 0
BBX 5 9 0 0
BITMAP
80
80
80
F0
88
88
88
C8
B0
ENDCHAR
STARTCHAR c
ENCODING 99
SWIDTH 500 0
DWIDTH 6 0
BBX 5 6 0 0
BITMAP
70
88
80
80
88
70
ENDCHAR
STARTCHAR d
ENCODING 100
SWIDTH 500 0
DWIDTH 6 0
BBX 5 9 0 0
BITMAP
08
08
08
78
88
88
88
98
68
ENDCHAR
STARTCHAR e
ENCODING 101
SWIDTH 500 0
DWIDTH 6 0
BBX 5 6 0 0
BITMAP
70
88
F8
80
88
70
ENDCHAR
STARTCHAR f
ENCODING 102
SWIDTH 500 0
DWIDTH 6 0
BBX 5 9 0 0
BITMAP
30
48
40
F0
40
40
40
40
E0
ENDCHAR
STARTCHAR g
ENCODING 103
SWIDTH 500 0
DWIDTH 6 0
BBX 5 7 0 -1
BITMAP
68
90
90
60
90
88
70
ENDCHAR
STARTCHAR h
ENCODING 104
SWIDTH 500 0
DWIDTH 6 0
BBX 5 9 0 0
BITMAP
80
80
80
B0
C8
88
88
88
88
ENDCHAR
STARTCHAR i
ENCODING 105
SWIDTH 500 0
DWIDTH 6 0
BBX 3 9 1 0
BITMAP
40
00
00
C0
40
40
40
40
E0
ENDCHAR
STARTCHAR j
ENCODING 106
SWIDTH 500 0
DWIDTH 6 0
BBX 4 10 0 -1
BITMAP
10
00
00
30
10
10
10
10
90
60
ENDCHAR
STARTCHAR k
ENCODING 107
SWIDTH 500 0
DWIDTH 6 0
BBX 5 9 0 0
BITMAP
80
80
88
90
A0
C0
A0
90
88
ENDCHAR
STARTCHAR l
ENCODING 108
SWIDTH 500 0
DWIDTH 6 0
BBX 3 9 1 0
BITMAP
C0
40
40
40
40
40
40
40
E0
ENDCHAR
STARTCHAR m
ENCODING 109
SWIDTH 500 0
DWIDTH 6 0
BBX 5 6 0 0
BITMAP
D0
A8
A8
A8
A8
A8
ENDCHAR
STARTCHAR n
ENCODING 110
SWIDTH 500 0
DWIDTH 6 0
BBX 5 6 0 0
BITMAP
B0
48
48
48
48
48
ENDCHAR
STARTCHAR o
ENCODING 111
SWIDTH 500 0
DWIDTH 6 0
BBX 5 6 0 0
BITMAP
70
88
88
88
88
70
ENDCHAR
STARTCHAR p
ENCODING 112
SWIDTH 500 0
DWIDTH 6 0
BBX 5 7 0 -1
BITMAP
F0
88
88
F0
80
80
80
ENDCHAR
STARTCHAR q
ENCODING 113
SWIDTH 500 0
DWIDTH 6 0
BBX 5 7 0 -1
BITMAP
78
88
88
88
78
08
08
ENDCHAR
STARTCHAR r
ENCODING 114
SWIDTH 500 0
DWIDTH 6 0
BBX 5 6 0 0
BITMAP
D0
68
40
40
40
E0
ENDCHAR
STARTCHAR s
ENCODING 115
SWIDTH 500 0
DWIDTH 6 0
BBX 5 6 0 0
BITMAP
70
88
60
10
88
70
ENDCHAR
STARTCHAR t
ENCODING 116
SWIDTH 500 0
DWIDTH 6 0
BBX 5 8 0 0
BITMAP
40
40
F0
40
40
40
48
30
ENDCHAR
STARTCHAR u
ENCODING 117
SWIDTH 500 0
DWIDTH 6 0
BBX 5 6 0 0
BITMAP
88
88
88
88
98
68
ENDCHAR
STARTCHAR v
ENCODING 118
SWIDTH 500 0
DWIDTH 6 0
BBX 5 6 0 0
BITMAP
88
88
50
50
20
20
ENDCHAR
STARTCHAR w
ENCODING 119
SWIDTH 500 0
DWIDTH 6 0
BBX 5 6 0 0
BITMAP
A8
A8
A8
50
50
50
ENDCHAR
STARTCHAR x
ENCODING 120
SWIDTH 500 0
DWIDTH 6 0
BBX 5 6 0 0
BITMAP
88
50
20
20
50
88
ENDCHAR
STARTCHAR y
ENCODING 121
SWIDTH 500 0
DWIDTH 6 0
BBX 4 7 1 -1
BITMAP
90
90
50
50
20
20
C0
ENDCHAR
STARTCHAR z
ENCODING 122
SWIDTH 500 0
DWIDTH 6 0
BBX 5 6 0 0
BITMAP
F8
88
10
20
48
F8
ENDCHAR
STARTCHAR braceleft
ENCODING 123
SWIDTH 500 0
DWIDTH 6 0
BBX 3 10 1 -1
BITMAP
20
40
40
40
40
80
40
40
40
20
ENDCHAR
STARTCHAR bar
ENCODING 124
SWIDTH 500 0
DWIDTH 6 0
BBX 1 11 2 -1
BITMAP
80
80
80
80
80
80
80
80
80
80
80
ENDCHAR
STARTCHAR braceright
ENCODING 125
SWIDTH 500 0
DWIDTH 6 0
BBX 3 10 1 -1
BITMAP
80
40
40
40
40
20
40
40
40
80
ENDCHAR
STARTCHAR asciitilde
ENCODING 126
SWIDTH 500 0
DWIDTH 6 0
BBX 4 2 1 4
BITMAP
50
A0
ENDCHAR
STARTCHAR uni521B
ENCODING 127
SWIDTH 1000 0
DWIDTH 11 0
BBX 10 10 0 -1
BITMAP
3040
4840
8540
7940
4940
4940
5940
4040
4440
3DC0
ENDCHAR
STARTCHAR uni5BA2
ENCODING 128
SWIDTH 1000 0
DWIDTH 11 0
BBX 10 10 0 -1
BITMAP
0400
FFC0
9040
1F00
3100
4E00
1100
FFC0
2100
3F00
ENDCHAR
STARTCHAR uni5B9E
ENCODING 129
SWIDTH 1000 0
DWIDTH 11 0
BBX 9 10 1 -1
BITMAP
0800
FF80
A080
1800
4800
2800
FF80
0800
3600
C180
ENDCHAR
STARTCHAR uni9A8C
ENCODING 130
SWIDTH 1000 0
DWIDTH 11 0
BBX 11 10 0 -1
BITMAP
7100
6300
A4C0
AF80
F000
1240
5980
9480
1100
2FE0
ENDCHAR
STARTCHAR uni5BA4
ENCODING 131
SWIDTH 1000 0
DWIDTH 11 0
BBX 9 10 1 -1
BITMAP
0800
FF80
8080
7F00
2200
7D00
0800
7F00
0800
FF80
ENDCHAR
STARTCHAR uni4E2D
ENCODING 132
SWIDTH 1000 0
DWIDTH 11 0
BBX 9 10 1 -1
BITMAP
0800
0800
FF80
8880
8880
FF80
8880
0800
0800
0800
ENDCHAR
STARTCHAR uni6587
ENCODING 133
SWIDTH 1000 0
DWIDTH 11 0
BBX 10 10 0 -1
BITMAP
0800
0400
FFC0
1100
1100
0A00
0400
0A00
31C0
C080
ENDCHAR
STARTCHAR uni652F
ENCODING 134
SWIDTH 1000 0
DWIDTH 11 0
BBX 9 10 1 -1
BITMAP
0800
FF80
0800
0800
7F00
2200
1400
0800
3600
C180
ENDCHAR
STARTCHAR uni6301
ENCODING 135
SWIDTH 1000 0
DWIDTH 11 0
BBX 10 10 0 -1
BITMAP
2100
27C0
F100
2FC0
3080
6FC0
A880
2480
2080
6380
ENDCHAR
STARTCHAR uni63D0
ENCODING 136
SWIDTH 1000 0
DWIDTH 11 0
BBX 10 10 0 -1
BITMAP
2780
2480
FF80
2480
3FC0
E100
25C0
2500
EB00
51C0
ENDCHAR
STARTCHAR uni793A
ENCODING 137
SWIDTH 1000 0
DWIDTH 11 0
BBX 9 10 1 -1
BITMAP
7F00
0000
0000
FF80
0800
2A00
4900
8880
2880
1000
ENDCHAR
STARTCHAR uni6309
ENCODING 138
SWIDTH 1000 0
DWIDTH 11 0
BBX 10 10 0 -1
BITMAP
2100
2FC0
F840
2200
3FC0
6280
A480
2500
A280
6C40
ENDCHAR
STARTCHAR uni4E0B
ENCODING 139
SWIDTH 1000 0
DWIDTH 11 0
BBX 9 10 1 -1
BITMAP
FF80
0800
0800
0C00
0B00
0900
0800
0800
0800
0800
ENDCHAR
STARTCHAR uni952E
ENCODING 140
SWIDTH 1000 0
DWIDTH 11 0
BBX 10 10 0 -1
BITMAP
4780
7A80
8FC0
EA80
4F80
F500
47C0
5900
6900
57C0
ENDCHAR
STARTCHAR uni8BBE
ENCODING 141
SWIDTH 1000 0
DWIDTH 11 0
BBX 10 10 1 -1
BITMAP
8F00
4900
0900
C1C0
5F00
4900
4600
4200
4D00
10C0
ENDCHAR
STARTCHAR uni5B9A
ENCODING 142
SWIDTH 1000 0
DWIDTH 11 0
BBX 10 10 0 -1
BITMAP
0400
7FC0
4040
3F80
0400
2400
2780
2400
5400
8FC0
ENDCHAR
STARTCHAR uni4FE1
ENCODING 143
SWIDTH 1000 0
DWIDTH 11 0
BBX 10 10 0 -1
BITMAP
2200
3FC0
2000
6F80
A000
2F80
2000
2F80
2880
2F80
ENDCHAR
STARTCHAR uni606F
ENCODING 144
SWIDTH 1000 0
DWIDTH 11 0
BBX 10 10 0 -1
BITMAP
0800
3F80
2080
3F80
2080
3F80
2080
3F80
5480
9F40
ENDCHAR
STARTCHAR uni8FD0
ENCODING 145
SWIDTH 1000 0
DWIDTH 11 0
BBX 10 10 0 -1
BITMAP
4F80
2000
0000
1FC0
E200
2480
29C0
3E40
5000
8FC0
ENDCHAR
STARTCHAR uni884C
ENCODING 146
SWIDTH 1000 0
DWIDTH 11 0
BBX 10 10 0 -1
BITMAP
2780
4000
9000
2FC0
6100
A100
2100
2100
2100
2700
ENDCHAR
STARTCHAR uni6B63
ENCODING 147
SWIDTH 1000 0
DWIDTH 11 0
BBX 10 10 0 -1
BITMAP
7FC0
0400
0400
0400
2780
2400
2400
2400
2400
FFC0
ENDCHAR
STARTCHAR uni5E38
ENCODING 148
SWIDTH 1000 0
DWIDTH 11 0
BBX 9 10 1 -1
BITMAP
2A00
FF80
A280
BE80
0800
7F00
4900
4900
4B00
0800
ENDCHAR
STARTCHAR uni52A0
ENCODING 149
SWIDTH 1000 0
DWIDTH 11 0
BBX 10 10 0 -1
BITMAP
2000
23C0
FA40
2A40
2A40
2A40
2A40
2A40
4BC0
9240
ENDCHAR
STARTCHAR uni70ED
ENCODING 150
SWIDTH 1000 0
DWIDTH 11 0
BBX 10 10 0 -1
BITMAP
2200
FA00
2780
3280
E680
23C0
6440
1280
4940
8940
ENDCHAR
STARTCHAR uni901A
ENCODING 151
SWIDTH 1000 0
DWIDTH 11 0
BBX 10 10 0 -1
BITMAP
4FC0
2280
0FC0
0A40
EFC0
2A40
2FC0
2A40
5000
8FC0
ENDCHAR
STARTCHAR uni9053
ENCODING 152
SWIDTH 1000 0
DWIDTH 11 0
BBX 10 10 0 -1
BITMAP
8480
5FC0
4200
0F80
E880
2F80
2880
2F80
5880
8FC0
ENDCHAR
STARTCHAR uni5168
ENCODING 153
SWIDTH 1000 0
DWIDTH 11 0
BBX 9 10 1 -1
BITMAP
0800
1400
2200
C180
3E00
0800
7F00
0800
0800
FF80
ENDCHAR
STARTCHAR uni90E8
ENCODING 154
SWIDTH 1000 0
DWIDTH 11 0
BBX 10 10 0 -1
BITMAP
13C0
FE40
4A40
3280
FE80
0240
7A40
4B40
7A80
4A00
ENDCHAR
STARTCHAR uni6E29
ENCODING 155
SWIDTH 1000 0
DWIDTH 11 0
BBX 10 10 0 -1
BITMAP
4F80
2880
8F80
5880
2F80
C000
5FC0
5540
5540
7FC0
ENDCHAR
STARTCHAR uni5EA6
ENCODING 156
SWIDTH 1000 0
DWIDTH 11 0
BBX 10 10 0 -1
BITMAP
0400
7FC0
4900
7FC0
4900
5F80
4900
4600
8900
B0C0
ENDCHAR
STARTCHAR uni9519
ENCODING 157
SWIDTH 1000 0
DWIDTH 11 0
BBX 11 10 0 -1
BITMAP
0280
77E0
9280
7FE0
2000
77C0
27C0
3440
27C0
0440
ENDCHAR
STARTCHAR uni8BEF
ENCODING 158
SWIDTH 1000 0
DWIDTH 11 0
BBX 11 10 0 -1
BITMAP
47C0
2480
0780
E000
27C0
2FE0
2300
2380
2440
1800
ENDCHAR
STARTCHAR uni4E3B
ENCODING 159
SWIDTH 1000 0
DWIDTH 11 0
BBX 9 10 1 -1
BITMAP
1000
0900
FF80
0800
0800
7F00
0800
0800
0900
FF80
ENDCHAR
STARTCHAR uni83DC
ENCODING 160
SWIDTH 1000 0
DWIDTH 11 0
BBX 10 10 0 -1
BITMAP
FFC0
1200
0380
7C00
2500
2440
7FC0
1600
2580
4440
ENDCHAR
STARTCHAR uni5355
ENCODING 161
SWIDTH 1000 0
DWIDTH 11 0
BBX 9 10 1 -1
BITMAP
2200
1400
7F00
4900
7F00
4900
7F00
0800
FF80
0800
ENDCHAR
STARTCHAR uni754C
ENCODING 162
SWIDTH 1000 0
DWIDTH 11 0
BBX 9 10 1 -1
BITMAP
7F00
4900
7F00
4900
7F00
2200
5300
9280
2200
4200
ENDCHAR
STARTCHAR uni9762
ENCODING 163
SWIDTH 1000 0
DWIDTH 11 0
BBX 10 10 0 -1
BITMAP
FFC0
0800
7F80
5280
5E80
5280
5E80
5280
7F80
4080
ENDCHAR
STARTCHAR uni4FDD
ENCODING 164
SWIDTH 1000 0
DWIDTH 11 0
BBX 10 10 0 -1
BITMAP
2F80
2880
2880
6F80
A200
3FC0
2200
2700
2A80
3240
ENDCHAR
STARTCHAR uni5B58
ENCODING 165
SWIDTH 1000 0
DWIDTH 11 0
BBX 9 10 1 -1
BITMAP
1000
FF80
1000
2F80
6100
A200
3F80
2200
2200
2E00
ENDCHAR
STARTCHAR uni53C2
ENCODING 166
SWIDTH 1000 0
DWIDTH 11 0
BBX 9 10 1 -1
BITMAP
2200
7F00
1100
FF80
2A00
D180
2400
1900
0200
7C00
ENDCHAR
STARTCHAR uni6570
ENCODING 167
SWIDTH 1000 0
DWIDTH 11 0
BBX 10 10 1 -1
BITMAP
A200
3400
FBC0
B480
0480
F300
5300
7100
2280
CC00
ENDCHAR
STARTCHAR uni8F7D
ENCODING 168
SWIDTH 1000 0
DWIDTH 11 0
BBX 9 10 1 -1
BITMAP
2300
FA80
FF80
4200
FA80
AB00
F900
2900
F380
2400
ENDCHAR
STARTCHAR uni5165
ENCODING 169
SWIDTH 1000 0
DWIDTH 11 0
BBX 9 10 1 -1
BITMAP
3000
0800
0800
0800
0800
0800
1400
2200
4100
8080
ENDCHAR
STARTCHAR uni964D
ENCODING 170
SWIDTH 1000 0
DWIDTH 11 0
BBX 10 10 0 -1
BITMAP
E7C0
A480
AB00
C4C0
A900
AFC0
A500
EFC0
8100
8100
ENDCHAR
STARTCHAR uni6E29
ENCODING 171
SWIDTH 1000 0
DWIDTH 11 0
BBX 10 10 0 -1
BITMAP
4F80
2880
8F80
5880
2F80
C000
5FC0
5540
5540
7FC0
ENDCHAR
STARTCHAR uni5B9B
STARTCHAR agrave
ENCODING 224
SWIDTH 1000 0
DWIDTH 11 0
BBX 6 10 3 0
BITMAP
20
10
00
00
78
88
88
88
88
7C
ENDCHAR
STARTCHAR aacute
ENCODING 225
SWIDTH 1000 0
DWIDTH 11 0
BBX 6 9 2 1
BITMAP
20
00
00
70
88
88
88
88
7C
ENDCHAR
STARTCHAR egrave
ENCODING 232
SWIDTH 1000 0
DWIDTH 11 0
BBX 5 10 3 0
BITMAP
40
30
00
00
70
88
F8
80
88
70
ENDCHAR
STARTCHAR eacute
ENCODING 233
SWIDTH 1000 0
DWIDTH 11 0
BBX 5 10 3 0
BITMAP
10
20
00
00
70
88
F8
80
88
70
ENDCHAR
STARTCHAR ecircumflex
ENCODING 234
SWIDTH 1000 0
DWIDTH 11 0
BBX 5 9 3 1
BITMAP
70
08
00
70
88
F8
80
88
70
ENDCHAR
STARTCHAR igrave
ENCODING 236
SWIDTH 1000 0
DWIDTH 11 0
BBX 3 10 4 0
BITMAP
80
40
00
00
C0
40
40
40
40
E0
ENDCHAR
STARTCHAR iacute
ENCODING 237
SWIDTH 1000 0
DWIDTH 11 0
BBX 3 10 4 0
BITMAP
40
80
00
00
C0
40
40
40
40
E0
ENDCHAR
STARTCHAR ograve
ENCODING 242
SWIDTH 1000 0
DWIDTH 11 0
BBX 5 9 3 0
BITMAP
40
20
00
70
88
88
88
88
70
ENDCHAR
STARTCHAR oacute
ENCODING 243
SWIDTH 1000 0
DWIDTH 11 0
BBX 5 10 3 0
BITMAP
10
20
00
00
70
88
88
88
88
70
ENDCHAR
STARTCHAR divide
ENCODING 247
SWIDTH 1000 0
DWIDTH 11 0
BBX 8 7 1 1
BITMAP
18
18
00
FF
00
18
18
ENDCHAR
STARTCHAR ugrave
ENCODING 249
SWIDTH 1000 0
DWIDTH 11 0
BBX 6 9 2 0
BITMAP
20
10
00
CC
44
44
44
4C
34
ENDCHAR
STARTCHAR arrowright
ENCODING 250
SWIDTH 1000 0
DWIDTH 11 0
BBX 11 3 0 3
BITMAP
0080
FFE0
00C0
ENDCHAR
STARTCHAR arrowup
ENCODING 251
SWIDTH 1000 0
DWIDTH 11 0
BBX 3 11 4 -1
BITMAP
40
40
E0
40
40
40
40
40
40
40
40
ENDCHAR
STARTCHAR udieresis
ENCODING 252
SWIDTH 1000 0
DWIDTH 11 0
BBX 6 9 2 0
BITMAP
44
00
00
CC
44
44
44
4C
34
ENDCHAR
ENDFONT
